<?xml version="1.0" encoding="UTF-8" standalone="no"?>
<svg xmlns="http://www.w3.org/2000/svg" xmlns:xlink="http://www.w3.org/1999/xlink" xmlns:serif="http://www.serif.com/" width="100%" height="100%" viewBox="0 0 96 93" version="1.1" xml:space="preserve" style="fill-rule:evenodd;clip-rule:evenodd;stroke-linejoin:round;stroke-miterlimit:2;">
  <g>
    <path d="M9.911,81.404c-0,-2.121 5.22,-4.622 8.809,-5.438l0.299,0l21.75,-8.156c1.121,-0.416 1.842,-1.525 1.767,-2.719l-0,-7.313c-0.003,-1.044 -0.607,-1.998 -1.55,-2.447c-5.675,-2.69 -9.313,-8.428 -9.325,-14.709c-0,-1.491 -1.227,-2.718 -2.719,-2.718l0,-5.438c1.492,0 2.719,-1.227 2.719,-2.719l-0,-5.437c-0,-8.949 7.364,-16.313 16.312,-16.313c8.949,0 16.313,7.364 16.313,16.313l-0,5.437c-0,1.492 1.227,2.719 2.719,2.719l-0,5.438l5.437,-0l0,-5.438c-0.002,-1.938 -1.04,-3.734 -2.719,-4.703l0,-3.453c0,-11.932 -9.818,-21.75 -21.75,-21.75c-11.931,-0 -21.75,9.818 -21.75,21.75l0,3.453c-1.678,0.969 -2.716,2.765 -2.718,4.703l-0,5.438c-0.018,1.957 1.023,3.779 2.718,4.757c0.727,6.999 4.778,13.237 10.875,16.748l0,3.779l-19.846,7.341c-2.474,0.625 -12.779,3.724 -12.779,10.875l0,5.437c0,1.492 1.228,2.719 2.719,2.719l38.063,-0l-0,-5.438l-35.344,0l-0,-2.718Z" style="fill:#c30b0e;fill-rule:nonzero;"></path>
    <path d="M69.723,46.06c-11.931,-0 -21.75,9.818 -21.75,21.75c0,11.932 9.819,21.75 21.75,21.75c11.932,-0 21.75,-9.818 21.75,-21.75c0,-11.932 -9.818,-21.75 -21.75,-21.75Zm0,38.062c-8.948,0 -16.312,-7.363 -16.312,-16.312c-0,-8.949 7.364,-16.313 16.312,-16.313c8.949,0 16.313,7.364 16.313,16.313c-0,8.949 -7.364,16.312 -16.313,16.312Z" style="fill:#c30b0e;fill-rule:nonzero;"></path>
    <path d="M67.005,69.414l-3.507,-3.507l-3.834,3.833l5.438,5.438c1.053,1.047 2.78,1.047 3.833,-0l10.875,-10.875l-3.833,-3.834l-8.972,8.945Z" style="fill:#c30b0e;fill-rule:nonzero;"></path>
  </g>
</svg>
