<?xml version="1.0" encoding="UTF-8" standalone="no"?>
<svg xmlns="http://www.w3.org/2000/svg" xmlns:xlink="http://www.w3.org/1999/xlink" xmlns:serif="http://www.serif.com/" width="100%" height="100%" viewBox="0 0 96 93" version="1.1" xml:space="preserve" style="fill-rule:evenodd;clip-rule:evenodd;stroke-linejoin:round;stroke-miterlimit:2;">
  <path d="M87.845,56.935c0.394,-14.18 -1.248,-28.343 -4.875,-42.057l-0,-9.131c-0,-1.337 -1.101,-2.437 -2.438,-2.437l-63.375,-0c-1.337,-0 -2.437,1.1 -2.437,2.437l-0,9.38c-3.536,13.645 -5.149,27.717 -4.792,41.808c-0,19.095 2.384,23.176 4.792,24.346l-0,7.341c-0,1.338 1.1,2.438 2.437,2.438l63.375,-0c1.337,-0 2.438,-1.1 2.438,-2.438l-0,-7.312c2.437,-1.121 4.875,-5.075 4.875,-24.375Zm-68.25,-48.75l58.5,-0l-0,4.875l-58.5,-0l-0,-4.875Zm58.5,78l-58.5,-0l-0,-4.875l58.5,-0l-0,4.875Zm2.954,-9.711c-0.086,-0.005 -0.172,-0.005 -0.258,-0c-0.086,-0.018 -0.172,-0.031 -0.259,-0.039l-63.375,-0c-0.093,0.013 -0.186,0.031 -0.278,0.053l-0.151,0c-0.643,-1.36 -1.925,-5.801 -1.925,-19.553c-0.23,-13.124 1.18,-26.226 4.197,-39l59.772,-0c3.015,12.775 4.425,25.876 4.198,39c-0,13.718 -1.277,18.169 -1.921,19.539Z" style="fill:#c30b0e;fill-rule:nonzero;"></path>
  <path d="M48.898,39.95c-10.483,0.493 -18.99,8.942 -19.553,19.422c-0.061,2.703 0.998,5.314 2.925,7.21c4.668,3.659 10.578,5.365 16.477,4.758l0.098,0l0.127,-2.437l0.156,2.437l0.087,0c5.852,0.582 11.708,-1.124 16.332,-4.758c1.925,-1.897 2.983,-4.507 2.925,-7.21c-0.565,-10.486 -9.083,-18.939 -19.574,-19.422Zm13.192,23.181c-1.248,1.248 -4.577,3.334 -12.884,3.334l-0.615,0c-8.287,0 -11.636,-2.086 -12.884,-3.334c-0.998,-0.99 -1.538,-2.354 -1.487,-3.759c0.635,-7.77 6.902,-13.981 14.678,-14.547c7.777,0.564 14.046,6.776 14.679,14.547c0.052,1.405 -0.488,2.77 -1.487,3.759Zm3.817,-35.446c-4.011,-0 -7.312,3.301 -7.312,7.312c-0,4.012 3.301,7.313 7.312,7.313c4.012,-0 7.313,-3.301 7.313,-7.313c-0,-4.011 -3.301,-7.312 -7.313,-7.312Zm0,9.75c-1.337,-0 -2.437,-1.1 -2.437,-2.438c-0,-1.337 1.1,-2.437 2.437,-2.437c1.337,-0 2.438,1.1 2.438,2.437c-0,1.338 -1.101,2.438 -2.438,2.438Zm-26.812,-2.438c-0,-4.011 -3.301,-7.312 -7.313,-7.312c-4.011,-0 -7.312,3.301 -7.312,7.312c-0,4.012 3.301,7.313 7.312,7.313c4.012,-0 7.313,-3.301 7.313,-7.313Zm-9.75,0c-0,-1.337 1.1,-2.437 2.437,-2.437c1.337,-0 2.438,1.1 2.438,2.437c-0,1.338 -1.101,2.438 -2.438,2.438c-1.337,-0 -2.437,-1.1 -2.437,-2.438Zm19.5,2.438c4.011,-0 7.312,-3.301 7.312,-7.313c0,-4.011 -3.301,-7.312 -7.312,-7.312c-4.012,-0 -7.313,3.301 -7.313,7.312c0,4.012 3.301,7.313 7.313,7.313Zm-0,-9.75c1.337,-0 2.437,1.1 2.437,2.437c0,1.338 -1.1,2.438 -2.437,2.438c-1.337,-0 -2.438,-1.1 -2.438,-2.438c0,-1.337 1.101,-2.437 2.438,-2.437Z" style="fill:#c30b0e;fill-rule:nonzero;"></path>
</svg>
