<?xml version="1.0" encoding="UTF-8" standalone="no"?>
<svg xmlns="http://www.w3.org/2000/svg" xmlns:xlink="http://www.w3.org/1999/xlink" xmlns:serif="http://www.serif.com/" width="100%" height="100%" viewBox="0 0 96 93" version="1.1" xml:space="preserve" style="fill-rule:evenodd;clip-rule:evenodd;stroke-linecap:round;stroke-linejoin:round;">
  <g id="tang_fish">
    <path d="M89.104,28.184c-0,4.455 -3.96,8.121 -8.772,8.121c-1.966,0.004 -3.877,-0.611 -5.418,-1.742l-15.028,13.894l-26.702,24.721c1.222,1.427 1.885,3.196 1.881,5.017c0.007,0.13 0.01,0.261 0.01,0.392c0,4.454 -3.959,8.12 -8.771,8.12c-4.812,0 -8.771,-3.666 -8.771,-8.12c-0,-0.131 0.003,-0.262 0.01,-0.392c0.002,-0.503 0.057,-1.003 0.163,-1.496c-0.532,0.098 -1.072,0.149 -1.615,0.152c-0.141,0.006 -0.282,0.009 -0.423,0.009c-4.812,0 -8.772,-3.666 -8.772,-8.12c0,-4.455 3.96,-8.121 8.772,-8.121c0.141,-0 0.282,0.003 0.423,0.009c1.967,-0.004 3.877,0.611 5.418,1.742l41.73,-38.634c-1.221,-1.427 -1.885,-3.196 -1.881,-5.016c-0.006,-0.131 -0.01,-0.262 -0.01,-0.392c0,-4.455 3.96,-8.121 8.771,-8.121c4.812,0 8.772,3.666 8.772,8.121c-0,0.13 -0.004,0.261 -0.01,0.392c-0.003,0.502 -0.058,1.003 -0.164,1.495c0.532,-0.098 1.073,-0.149 1.615,-0.151c4.812,-0 8.772,3.665 8.772,8.12Z" style="fill:none;fill-rule:nonzero;stroke:#089558;stroke-width:3.94px;"></path>
  </g>
</svg>
