<?xml version="1.0" encoding="UTF-8" standalone="no"?>
<svg xmlns="http://www.w3.org/2000/svg" xmlns:xlink="http://www.w3.org/1999/xlink" xmlns:serif="http://www.serif.com/" width="100%" height="100%" viewBox="0 0 96 93" version="1.1" xml:space="preserve" style="fill-rule:evenodd;clip-rule:evenodd;stroke-linejoin:round;stroke-miterlimit:2;">
  <g>
    <path d="M14.43,70.979l7.468,-0c1.366,-0 2.489,-1.124 2.489,-2.489l0,-27.382c0,-1.366 -1.123,-2.489 -2.489,-2.489l-2.489,-0l-0,-2.49c-0,-16.386 13.484,-29.871 29.871,-29.871c16.387,0 29.871,13.485 29.871,29.871l-0,2.49l-2.489,-0c-1.366,-0 -2.49,1.123 -2.49,2.489l0,27.382c0,1.365 1.124,2.489 2.49,2.489l2.265,-0c-1.209,7.15 -7.46,12.439 -14.712,12.446l-4.978,0c-0.589,-2.887 -3.152,-4.979 -6.099,-4.978l-7.467,-0c-3.414,-0 -6.224,2.809 -6.224,6.223c0,3.414 2.81,6.223 6.224,6.223l7.467,-0c1.957,-0.004 3.802,-0.927 4.979,-2.489l6.098,-0c9.982,-0.009 18.492,-7.522 19.74,-17.425l0.174,-0c5.463,-0 9.957,-4.495 9.957,-9.957l0,-12.446c0,-5.463 -4.494,-9.957 -9.957,-9.957l0,-2.49c0,-19.117 -15.731,-34.849 -34.849,-34.849c-19.118,-0 -34.85,15.732 -34.85,34.849l0,2.49c-5.462,-0 -9.957,4.494 -9.957,9.957l0,12.446c0,5.462 4.495,9.957 9.957,9.957Zm38.584,14.935l-7.468,0c-0.683,0 -1.245,-0.562 -1.245,-1.244c0,-0.683 0.562,-1.245 1.245,-1.245l7.468,0c0.683,0 1.244,0.562 1.244,1.245c0,0.682 -0.561,1.244 -1.244,1.244Zm36.094,-37.338l-0,12.446c-0,2.731 -2.247,4.978 -4.979,4.978l-4.978,0l-0,-22.403l4.978,0c2.732,0 4.979,2.248 4.979,4.979Zm-79.656,-0c-0,-2.731 2.247,-4.979 4.978,-4.979l4.979,0l-0,22.403l-4.979,0c-2.731,0 -4.978,-2.247 -4.978,-4.978l-0,-12.446Z" style="fill:#c30b0e;fill-rule:nonzero;"></path>
    <path d="M49.28,73.468c4.716,0.026 9.171,-2.206 11.973,-5.999c0.311,-0.427 0.478,-0.941 0.478,-1.469c0,-1.368 -1.126,-2.494 -2.494,-2.494c-0.797,-0 -1.547,0.382 -2.016,1.026c-1.881,2.486 -4.824,3.949 -7.941,3.949c-3.117,0 -6.06,-1.463 -7.941,-3.949c-0.469,-0.644 -1.219,-1.026 -2.016,-1.026c-1.368,-0 -2.495,1.126 -2.495,2.494c0,0.528 0.168,1.042 0.479,1.469c2.802,3.793 7.257,6.025 11.973,5.999Z" style="fill:#c30b0e;fill-rule:nonzero;"></path>
  </g>
</svg>
