<?xml version="1.0" encoding="UTF-8" standalone="no"?>
<svg xmlns="http://www.w3.org/2000/svg" xmlns:xlink="http://www.w3.org/1999/xlink" xmlns:serif="http://www.serif.com/" width="100%" height="100%" viewBox="0 0 96 93" version="1.1" xml:space="preserve" style="fill-rule:evenodd;clip-rule:evenodd;stroke-linejoin:round;stroke-miterlimit:2;">
  <g>
    <path d="M90.333,66.764c-0.205,0.001 -0.406,-0.047 -0.588,-0.139c-0.367,-0.184 -9.099,-4.487 -19.071,-2.545c-0.088,0.018 -0.178,0.028 -0.268,0.028c-0.72,-0 -1.312,-0.593 -1.312,-1.313c-0,-0.631 0.456,-1.178 1.077,-1.291c8.654,-1.688 17.116,0.95 20.751,2.775c0.444,0.222 0.725,0.677 0.725,1.173c-0,0.719 -0.592,1.312 -1.312,1.312c-0.001,-0 -0.002,-0 -0.002,-0l-0,0Zm-7.811,9.189c-0.343,0.001 -0.674,-0.134 -0.919,-0.375c-3.133,-3.075 -9.591,-5.382 -12.66,-5.625c-0.68,-0.053 -1.211,-0.627 -1.211,-1.308c0,-0.721 0.593,-1.313 1.313,-1.313c0.034,-0 0.068,0.001 0.102,0.004c3.466,0.27 10.551,2.692 14.295,6.365c0.252,0.247 0.394,0.585 0.394,0.938c-0,0.72 -0.593,1.312 -1.313,1.312c-0,0 -0.001,0 -0.001,0l0,0.002Z" style="fill:#bdbdc6;fill-rule:nonzero;"></path>
  </g>
  <g>
    <path d="M4.083,66.764c-0.719,-0.001 -1.309,-0.593 -1.309,-1.311c-0,-0.494 0.279,-0.948 0.72,-1.171c3.634,-1.826 12.096,-4.465 20.751,-2.775c0.621,0.113 1.077,0.66 1.077,1.291c0,0.72 -0.592,1.313 -1.312,1.313c-0.09,-0 -0.18,-0.01 -0.268,-0.028c-9.969,-1.947 -18.704,2.358 -19.071,2.542c-0.182,0.092 -0.384,0.14 -0.588,0.139Zm7.81,9.189c-0,0 -0,0 -0.001,0c-0.72,0 -1.312,-0.592 -1.312,-1.312c-0,-0.353 0.142,-0.691 0.394,-0.938c3.744,-3.675 10.828,-6.095 14.294,-6.365c0.034,-0.003 0.068,-0.004 0.102,-0.004c0.72,0 1.313,0.593 1.313,1.313c0,0.681 -0.531,1.255 -1.21,1.309c-3.07,0.239 -9.525,2.55 -12.661,5.625c-0.245,0.239 -0.576,0.373 -0.919,0.372Z" style="fill:#bdbdc6;fill-rule:nonzero;"></path>
  </g>
  <g>
    <path d="M90.921,64.282c-1.337,-0.649 -2.723,-1.193 -4.145,-1.625c0.639,-2.78 0.959,-5.623 0.954,-8.475c0,-6.9 -3.585,-12.7 -7.375,-17.287c5.31,-8.43 6.391,-19.226 6.333,-26.918c-0.048,-5.01 -4.183,-9.105 -9.193,-9.105c-0.937,-0 -1.868,0.143 -2.762,0.425c-6.32,1.92 -12.195,5.08 -17.28,9.295c-3.247,-1.335 -6.736,-1.98 -10.245,-1.893c-3.511,-0.087 -7.002,0.558 -10.249,1.895c-5.083,-4.217 -10.957,-7.378 -17.276,-9.297c-0.894,-0.282 -1.826,-0.425 -2.763,-0.425c-5.009,-0 -9.143,4.094 -9.192,9.102c-0.015,1.823 0.037,3.63 0.15,5.385c0.047,0.686 0.625,1.224 1.312,1.223l0.083,-0c0.685,-0.044 1.225,-0.62 1.225,-1.307c0,-0.029 -0.001,-0.059 -0.003,-0.088c-0.108,-1.728 -0.156,-3.459 -0.142,-5.19c0.004,-2.075 1.007,-4.025 2.692,-5.235c1.685,-1.239 3.866,-1.597 5.858,-0.96c5.642,1.715 10.912,4.473 15.538,8.13c-0.547,0.347 -1.076,0.722 -1.585,1.125c-4.347,-3.336 -9.259,-5.864 -14.501,-7.463c-0.464,-0.149 -0.948,-0.225 -1.436,-0.225c-2.558,0 -4.668,2.092 -4.691,4.65c-0.058,6.65 0.782,15.984 4.954,23.347c-0.436,0.466 -0.877,0.944 -1.328,1.445c-1.74,-3.011 -3.034,-6.259 -3.844,-9.642c-0.146,-0.583 -0.674,-0.995 -1.275,-0.995c-0.721,-0 -1.314,0.593 -1.314,1.314c-0,0.108 0.013,0.215 0.039,0.319c0.939,3.916 2.491,7.659 4.598,11.092c-3.791,4.583 -7.373,10.384 -7.373,17.28c-0.004,2.852 0.315,5.696 0.953,8.475c-1.422,0.433 -2.807,0.978 -4.144,1.628c-0.428,0.227 -0.696,0.674 -0.696,1.158c0,0.72 0.593,1.313 1.313,1.313c0.194,-0 0.385,-0.043 0.56,-0.126c1.183,-0.562 2.405,-1.038 3.656,-1.425c0.846,2.707 2.05,5.29 3.579,7.679c-0.327,0.269 -0.643,0.543 -0.932,0.825c-0.252,0.246 -0.394,0.585 -0.394,0.937c-0,0.72 0.593,1.313 1.313,1.313c0.343,-0 0.674,-0.135 0.919,-0.375c0.189,-0.186 0.391,-0.368 0.6,-0.547c3.039,3.919 6.887,7.139 11.281,9.439c0.414,0.231 0.836,0.446 1.256,0.648c6.644,3.13 13.914,4.712 21.259,4.623c7.383,0.087 14.69,-1.512 21.362,-4.675c0.383,-0.191 0.764,-0.387 1.142,-0.588c4.396,-2.305 8.246,-5.528 11.288,-9.45c0.212,0.18 0.414,0.362 0.603,0.547c0.246,0.241 0.576,0.376 0.92,0.376c0.72,-0 1.312,-0.593 1.312,-1.313c0,-0.353 -0.142,-0.691 -0.393,-0.938c-0.299,-0.289 -0.61,-0.564 -0.933,-0.825c1.529,-2.388 2.733,-4.97 3.579,-7.677c1.252,0.387 2.473,0.863 3.656,1.425c0.19,0.101 0.402,0.154 0.617,0.154c0.72,0 1.312,-0.592 1.312,-1.312c0,-0.507 -0.293,-0.97 -0.752,-1.187l0,0.001Zm-15.408,-60.48c1.992,-0.636 4.172,-0.279 5.857,0.96c1.684,1.208 2.687,3.155 2.693,5.227c0.057,7.133 -0.894,17.015 -5.51,24.814c-0.45,-0.499 -0.888,-0.975 -1.321,-1.438c4.176,-7.36 5.013,-16.703 4.956,-23.353c-0.039,-2.549 -2.139,-4.628 -4.688,-4.643c-0.484,-0.001 -0.965,0.075 -1.425,0.225c-5.247,1.596 -10.165,4.124 -14.516,7.463c-0.511,-0.406 -1.042,-0.785 -1.593,-1.136c4.631,-3.651 9.904,-6.405 15.547,-8.119Zm-0.171,27.563c-1.053,-1.067 -2.052,-2.186 -2.993,-3.353c-1.183,-1.636 -2.262,-3.344 -3.232,-5.114c-1.525,-2.901 -3.402,-5.603 -5.586,-8.046c4.018,-3.013 8.533,-5.301 13.339,-6.76c0.204,-0.066 0.416,-0.099 0.63,-0.098c1.12,0.01 2.041,0.921 2.063,2.04c0.05,6.118 -0.676,14.618 -4.221,21.331Zm-58.427,-23.371c0.22,-0.001 0.438,0.035 0.645,0.105c4.802,1.456 9.313,3.74 13.328,6.75c-2.186,2.444 -4.064,5.147 -5.59,8.049c-0.97,1.77 -2.049,3.478 -3.232,5.114c-0.941,1.168 -1.941,2.288 -2.995,3.355c-3.549,-6.75 -4.268,-15.218 -4.218,-21.325c0.018,-1.122 0.94,-2.037 2.062,-2.048Zm63.437,63.354c-3.774,-2.325 -8.55,-3.802 -11.205,-4.009c-0.034,-0.003 -0.068,-0.004 -0.102,-0.004c-0.72,-0 -1.313,0.592 -1.313,1.313c0,0.681 0.531,1.255 1.211,1.308c2.325,0.182 6.6,1.556 9.9,3.549c-2.47,3.175 -5.526,5.849 -9,7.875c-0.696,-2.2 -1.379,-4.575 -2.096,-7.074c-1.414,-4.962 -2.884,-10.084 -4.722,-14.749c-0.197,-0.502 -0.683,-0.834 -1.222,-0.834c-0.721,0 -1.314,0.593 -1.314,1.314c0,0.164 0.031,0.327 0.091,0.48c1.8,4.552 3.248,9.615 4.643,14.505c0.775,2.704 1.518,5.272 2.28,7.644l-0.101,0.052c-6.309,2.983 -13.216,4.489 -20.194,4.401c-6.947,0.087 -13.823,-1.405 -20.109,-4.362c-0.057,-0.028 -0.114,-0.061 -0.171,-0.089c0.739,-2.298 1.46,-4.765 2.22,-7.369c3.907,-13.44 8.332,-28.68 18.165,-28.68c4.087,0 7.56,2.655 10.597,8.123c0.231,0.416 0.672,0.675 1.148,0.675c0.72,0 1.312,-0.593 1.312,-1.313c0,-0.223 -0.056,-0.442 -0.165,-0.637c-3.547,-6.375 -7.762,-9.473 -12.892,-9.473c-11.798,0 -16.523,16.245 -20.685,30.57c-0.7,2.4 -1.366,4.687 -2.041,6.816c-3.48,-2.025 -6.54,-4.697 -9.014,-7.873c3.3,-1.994 7.575,-3.367 9.9,-3.548c0.679,-0.054 1.21,-0.628 1.21,-1.309c0,-0.72 -0.593,-1.313 -1.313,-1.313c-0.034,0 -0.068,0.001 -0.102,0.004c-2.655,0.207 -7.43,1.68 -11.204,4.008c-1.356,-2.138 -2.431,-4.441 -3.198,-6.853c4.214,-1.049 8.604,-1.19 12.876,-0.414c0.088,0.019 0.178,0.028 0.268,0.028c0.72,-0 1.312,-0.593 1.312,-1.313c0,-0.631 -0.456,-1.178 -1.077,-1.291c-4.668,-0.836 -9.461,-0.681 -14.066,0.456c-0.581,-2.553 -0.873,-5.164 -0.869,-7.783c0,-8.748 6.525,-15.6 11.288,-20.607c1.253,-1.262 2.44,-2.587 3.557,-3.97c1.25,-1.725 2.392,-3.526 3.417,-5.393c3.655,-6.334 7.434,-12.885 19.636,-12.885c12.201,-0 15.981,6.551 19.635,12.885c1.026,1.867 2.167,3.668 3.417,5.393c1.117,1.383 2.304,2.708 3.557,3.97c4.764,5.004 11.288,11.859 11.288,20.607c0.004,2.617 -0.288,5.226 -0.869,7.778c-4.605,-1.135 -9.398,-1.288 -14.066,-0.45c-0.621,0.113 -1.077,0.66 -1.077,1.291c0,0.72 0.593,1.313 1.313,1.313c0.09,-0 0.179,-0.01 0.267,-0.028c4.273,-0.775 8.662,-0.634 12.877,0.414c-0.768,2.411 -1.842,4.714 -3.198,6.851Z" style="fill:#c30b0e;fill-rule:nonzero;"></path>
    <path d="M56.347,66.669c-2.235,0.884 -3.883,0.895 -5.041,0.025c-0.49,-0.396 -0.892,-0.891 -1.179,-1.452c2.531,-1.229 4.299,-3.821 4.299,-5.685c0,-2.563 -2.833,-4.219 -7.218,-4.219c-4.386,0 -7.219,1.656 -7.219,4.219c-0,1.864 1.768,4.456 4.299,5.685c-0.288,0.563 -0.691,1.059 -1.183,1.456c-1.153,0.866 -2.801,0.856 -5.037,-0.029c-0.149,-0.056 -0.306,-0.085 -0.465,-0.085c-0.72,-0 -1.313,0.592 -1.313,1.312c0,0.531 0.322,1.011 0.812,1.214c1.247,0.528 2.583,0.816 3.937,0.851c0.474,-0.004 0.947,-0.059 1.409,-0.165l-0.136,2.143c-0.001,0.028 -0.002,0.055 -0.002,0.083c-0,0.72 0.592,1.312 1.312,1.312l7.171,0c0.72,0 1.313,-0.592 1.313,-1.312c-0,-0.028 -0.001,-0.055 -0.003,-0.083l-0.136,-2.143c0.463,0.106 0.936,0.161 1.411,0.165c1.353,-0.034 2.688,-0.323 3.935,-0.851c0.491,-0.203 0.812,-0.683 0.812,-1.214c0,-0.72 -0.592,-1.312 -1.312,-1.312c-0.159,-0 -0.317,0.029 -0.466,0.085Zm-13.733,-7.112c-0,-0.651 1.636,-1.594 4.594,-1.594c2.958,0 4.593,0.943 4.593,1.594c0,1.06 -2.037,3.762 -4.593,3.762c-2.557,-0 -4.594,-2.702 -4.594,-3.762Zm2.407,11.152l0.15,-2.325c0.73,-0.7 1.316,-1.536 1.725,-2.461c0.104,0.005 0.207,0.019 0.313,0.019c0.106,-0 0.209,-0.014 0.314,-0.019c0.408,0.925 0.994,1.762 1.725,2.462l0.15,2.325l-4.377,-0.001Zm-11.313,-37.817c-1.955,0 -3.563,1.608 -3.563,3.563c0,1.954 1.608,3.562 3.563,3.562c1.954,0 3.562,-1.608 3.562,-3.562c-0.002,-1.954 -1.609,-3.56 -3.562,-3.563Zm-0,4.5c-0.515,0 -0.938,-0.423 -0.938,-0.937c0,-0.515 0.423,-0.938 0.938,-0.938c0.514,0 0.937,0.423 0.937,0.938c-0,0.514 -0.423,0.937 -0.937,0.937Zm27,-4.5c-1.955,0 -3.563,1.608 -3.563,3.563c0,1.954 1.608,3.562 3.563,3.562c1.954,0 3.562,-1.608 3.562,-3.562c-0.002,-1.954 -1.609,-3.56 -3.562,-3.563Zm-0,4.5c-0.515,0 -0.938,-0.423 -0.938,-0.937c0,-0.515 0.423,-0.938 0.938,-0.938c0.514,0 0.937,0.423 0.937,0.938c-0,0.514 -0.423,0.937 -0.937,0.937Z" style="fill:#c30b0e;fill-rule:nonzero;"></path>
  </g>
</svg>
