<?xml version="1.0" encoding="UTF-8" standalone="no"?>
<svg xmlns="http://www.w3.org/2000/svg" xmlns:xlink="http://www.w3.org/1999/xlink" xmlns:serif="http://www.serif.com/" width="100%" height="100%" viewBox="0 0 96 93" version="1.1" xml:space="preserve" style="fill-rule:evenodd;clip-rule:evenodd;stroke-linejoin:round;stroke-miterlimit:2;">
  <g id="tang_fish">
    <path d="M81.291,39.512l-2.326,0c-1.67,0.009 -3.256,-0.785 -4.306,-2.157c-2.239,-2.937 -4.827,-5.557 -7.7,-7.798c0.02,-0.454 -0.056,-0.907 -0.22,-1.327l-4.808,-12.908c-2.345,-6.135 -8.369,-9.85 -14.583,-8.992c-4.207,0.515 -8.311,1.724 -12.163,3.583c-6.517,3.148 -12.07,8.16 -16.028,14.468c-1.999,3.264 -1.42,7.628 1.351,10.187l1.446,1.228c-0.629,0.73 -1.226,1.526 -1.792,2.323l-6.788,-4.679c-1.082,-0.803 -2.533,-0.803 -3.615,-0c-4.706,3.835 -7.49,9.75 -7.542,16.027c0.09,6.24 2.869,12.108 7.542,15.928c0.544,0.43 1.206,0.663 1.886,0.663c0.616,-0.005 1.217,-0.201 1.729,-0.564l6.82,-4.778c0.842,1.231 1.755,2.405 2.734,3.517l-2.671,2.356c-2.589,2.14 -3.069,6.139 -1.069,8.893c3.622,4.945 8.444,8.764 13.954,11.05c3.342,1.407 6.854,2.312 10.435,2.688l1.445,-0c4.766,0.154 9.208,-2.619 11.377,-7.101l3.458,-8.13c0.032,-0.187 0.032,-0.378 -0,-0.564c6.255,-2.882 11.678,-7.462 15.714,-13.273c0.322,-0.49 0.849,-0.786 1.414,-0.797l4.557,0c0.032,0.001 0.063,0.001 0.095,0.001c4.683,-0 8.545,-4.049 8.58,-8.993l-0,-1.792c-0.05,-4.988 -3.95,-9.063 -8.674,-9.063c-0.084,0 -0.168,0.002 -0.252,0.004Zm-69.363,19.047c-2.13,-2.503 -3.345,-5.728 -3.426,-9.092c0.045,-3.368 1.278,-6.599 3.457,-9.059l4.903,3.318c-0.73,1.444 -1.36,2.941 -1.885,4.48c-0.25,0.729 -0.25,1.528 -0,2.256c0.525,1.54 1.155,3.037 1.885,4.48l-4.934,3.617Zm32.277,24.091c-2.998,-0.319 -5.938,-1.079 -8.737,-2.257c-4.405,-1.81 -8.285,-4.808 -11.251,-8.694l3.425,-2.986c5.793,4.758 12.933,7.329 20.272,7.3l1.603,0c0.911,0 1.854,-0.199 2.765,-0.332l-1.603,3.65c-1.282,2.425 -3.876,3.754 -6.474,3.319Zm39.726,-32.287c-0,1.329 -1.036,2.422 -2.294,2.422l-4.558,0c-2.557,0.013 -4.962,1.307 -6.474,3.484c-3.887,5.702 -9.391,9.956 -15.714,12.145c-3.631,1.069 -7.44,1.285 -11.157,0.631c-8.275,-1.617 -15.504,-6.915 -19.832,-14.534l0,-0.233l-0.157,-0.165c-0.919,-1.487 -1.738,-3.039 -2.451,-4.646c0.623,-1.599 1.369,-3.142 2.231,-4.612l0.157,-0.199c0.157,-0.2 0,-0.266 0.157,-0.399c1.226,-2.069 2.659,-3.994 4.275,-5.74c0.625,-0.68 0.945,-1.611 0.88,-2.555c0.351,-1.29 -0.072,-2.684 -1.069,-3.518l-3.143,-2.787c-0.427,-0.374 -0.522,-1.035 -0.22,-1.526c3.32,-5.275 7.968,-9.47 13.42,-12.112c3.19,-1.57 6.595,-2.601 10.089,-3.053c3.345,-0.512 6.623,1.431 7.951,4.712l2.766,7.267c-2.974,-1.174 -6.101,-1.856 -9.271,-2.024c-6.039,-0.291 -12.039,1.166 -17.349,4.214c-1.025,0.575 -1.669,1.705 -1.669,2.931c0,0.552 0.131,1.096 0.38,1.582c0.825,1.586 2.734,2.184 4.243,1.327c4.364,-2.48 9.286,-3.662 14.237,-3.418c8.144,0.744 15.618,5.1 20.555,11.979c2.215,2.882 5.536,4.574 9.051,4.613l2.326,-0c0.084,-0.01 0.168,-0.014 0.253,-0.014c1.279,-0 2.343,1.086 2.387,2.436l-0,1.792Z" style="fill:#c30b0e;fill-rule:nonzero;"></path>
    <path d="M61.931,39.512c-1.724,0 -3.143,1.498 -3.143,3.318c-0,1.821 1.419,3.319 3.143,3.319c1.724,-0 3.143,-1.498 3.143,-3.319c-0,-1.82 -1.419,-3.318 -3.143,-3.318Z" style="fill:#c30b0e;fill-rule:nonzero;"></path>
  </g>
</svg>
