<?xml version="1.0" encoding="UTF-8" standalone="no"?>
<svg xmlns="http://www.w3.org/2000/svg" xmlns:xlink="http://www.w3.org/1999/xlink" xmlns:serif="http://www.serif.com/" width="100%" height="100%" viewBox="0 0 96 93" version="1.1" xml:space="preserve" style="fill-rule:evenodd;clip-rule:evenodd;stroke-linejoin:round;stroke-miterlimit:2;">
  <path d="M93.303,60.581c-2.836,-2.096 -6.025,-3.667 -9.415,-4.639l-0,-4.391c0.007,-4.973 -1.031,-9.891 -3.046,-14.436c7.616,-7.058 11.953,-16.982 11.958,-27.366c-0,-0.833 -0.686,-1.519 -1.519,-1.519c-10.132,0.012 -19.836,4.141 -26.869,11.434c-10.286,-5.314 -22.537,-5.318 -32.825,-0.009c-7.034,-7.286 -16.733,-11.411 -26.859,-11.425c-0.834,0 -1.519,0.686 -1.519,1.519c0.005,10.384 4.342,20.308 11.958,27.366c-2.016,4.545 -3.054,9.463 -3.046,14.436l0,4.391c-3.39,0.972 -6.579,2.543 -9.415,4.639c-0.409,0.283 -0.653,0.75 -0.653,1.247c-0,0.833 0.685,1.519 1.518,1.519c0.331,0 0.653,-0.108 0.917,-0.308c2.367,-1.749 5.006,-3.097 7.81,-3.992c0.268,2.39 0.836,4.736 1.689,6.984c-3.352,1.942 -6.284,4.532 -8.625,7.619c-0.215,0.269 -0.332,0.603 -0.332,0.947c0,0.833 0.686,1.519 1.519,1.519c0.477,-0 0.927,-0.225 1.213,-0.606c2.035,-2.684 4.566,-4.954 7.456,-6.686c4.908,9.752 14.927,15.934 25.844,15.946l13.885,-0c10.911,-0.012 20.926,-6.187 25.836,-15.931c2.893,1.724 5.427,3.989 7.463,6.671c0.288,0.361 0.726,0.572 1.187,0.572c0.833,-0 1.519,-0.686 1.519,-1.519c-0,-0.329 -0.107,-0.65 -0.305,-0.913c-2.341,-3.087 -5.273,-5.677 -8.626,-7.618c0.85,-2.248 1.415,-4.593 1.681,-6.982c2.804,0.895 5.442,2.243 7.81,3.992c0.264,0.2 0.586,0.308 0.917,0.308c0.833,-0 1.518,-0.686 1.518,-1.519c0,-0.497 -0.244,-0.964 -0.653,-1.248l0.009,-0.002Zm-17.072,-31.143c-1.354,-1.719 -2.86,-3.313 -4.501,-4.761c2.319,-2.046 5.214,-3.326 8.288,-3.664c-0.344,3.136 -1.67,6.086 -3.787,8.425Zm3.211,4.829c-0.433,-0.788 -0.896,-1.562 -1.389,-2.322c3.259,-3.359 5.085,-7.858 5.088,-12.537c0,-0.834 -0.685,-1.519 -1.518,-1.519c-4.553,0.006 -8.939,1.736 -12.271,4.839c-0.716,-0.539 -1.456,-1.044 -2.218,-1.515c6.042,-5.984 14.096,-9.517 22.59,-9.91c-0.395,8.677 -4.073,16.888 -10.283,22.961l0.001,0.003Zm-14.145,-10.626c-2.119,3.082 -5.628,4.929 -9.369,4.929c-5.598,-0 -10.404,-4.136 -11.24,-9.671c7.206,-0.764 14.464,0.906 20.612,4.742l-0.003,-0Zm-59.015,-12.338c8.492,0.395 16.542,3.926 22.585,9.906c-0.759,0.477 -1.5,0.984 -2.22,1.518c-3.328,-3.103 -7.711,-4.832 -12.261,-4.838c-0.833,-0 -1.519,0.685 -1.519,1.519c0.005,4.679 1.832,9.177 5.091,12.535c-0.493,0.75 -0.955,1.527 -1.389,2.322c-6.212,-6.072 -9.891,-14.284 -10.287,-22.962Zm13.494,18.137c-2.116,-2.339 -3.441,-5.287 -3.785,-8.423c3.072,0.337 5.965,1.617 8.281,3.663c-1.64,1.446 -3.145,3.037 -4.496,4.756l-0,0.004Zm59.513,35.245c-2.547,-1.13 -5.297,-1.732 -8.083,-1.768c-0.812,0.031 -1.462,0.707 -1.462,1.519c-0,0.833 0.686,1.519 1.519,1.519c0.02,0 0.039,-0 0.058,-0.001c2.328,0.065 4.62,0.586 6.748,1.532c-4.398,8.715 -13.36,14.237 -23.122,14.246l-13.885,0c-9.771,-0.01 -18.739,-5.543 -23.131,-14.271c2.131,-0.949 4.429,-1.464 6.761,-1.514c0.027,0.002 0.053,0.002 0.08,0.002c0.807,0 1.475,-0.655 1.491,-1.462c0.031,-0.832 -0.628,-1.543 -1.46,-1.574c-2.787,0.033 -5.537,0.635 -8.083,1.767c-0.746,-2.046 -1.229,-4.178 -1.438,-6.346c2.7,-0.523 5.482,-0.432 8.141,0.266c0.141,0.042 0.287,0.063 0.434,0.063c0.834,0 1.519,-0.686 1.519,-1.519c0,-0.636 -0.4,-1.208 -0.998,-1.426c-3.004,-0.823 -6.153,-0.971 -9.221,-0.434l-0,-3.732c-0.013,-4.903 1.086,-9.746 3.212,-14.164c4.48,-9.358 13.135,-16.064 23.315,-18.066c1.045,7.029 7.143,12.287 14.249,12.287c4.74,0 9.187,-2.339 11.872,-6.246c4.193,3.166 7.566,7.292 9.836,12.031c2.125,4.416 3.222,9.256 3.211,14.157l0,3.731c-3.068,-0.538 -6.217,-0.39 -9.221,0.434c-0.606,0.213 -1.014,0.79 -1.014,1.432c-0,0.834 0.685,1.519 1.518,1.519c0.153,0 0.305,-0.023 0.45,-0.068c2.66,-0.699 5.443,-0.79 8.143,-0.267c-0.209,2.169 -0.692,4.302 -1.439,6.349l0,0.004Z" style="fill:#c30b0e;fill-rule:nonzero;"></path>
  <path d="M60.691,37.878c-2.907,-0 -5.271,2.909 -5.271,6.487c-0,3.578 2.364,6.488 5.271,6.488c2.908,-0 5.271,-2.91 5.271,-6.488c0,-3.578 -2.363,-6.487 -5.271,-6.487Zm0,9.938c-1.19,-0 -2.234,-1.613 -2.234,-3.451c-0,-1.838 1.041,-3.45 2.234,-3.45c1.194,-0 2.234,1.612 2.234,3.45c0,1.838 -1.044,3.451 -2.234,3.451Zm-20.102,-3.451c0,-3.578 -2.366,-6.487 -5.272,-6.487c-2.906,-0 -5.271,2.909 -5.271,6.487c0,3.578 2.364,6.488 5.271,6.488c2.907,-0 5.272,-2.91 5.272,-6.488Zm-7.505,0c-0,-1.838 1.041,-3.45 2.233,-3.45c1.193,-0 2.235,1.612 2.235,3.45c-0,1.838 -1.042,3.451 -2.235,3.451c-1.193,-0 -2.233,-1.613 -2.233,-3.451Zm27.607,16.349c-0.833,-0 -1.518,0.685 -1.518,1.518c-0,2.647 -2.178,4.825 -4.825,4.825c-2.647,0 -4.825,-2.178 -4.825,-4.825l-0,-2.021c1.841,-0.964 3.474,-2.283 4.805,-3.879c0.422,-0.511 0.653,-1.153 0.653,-1.816c0,-1.446 -1.099,-2.675 -2.536,-2.834c-2.952,-0.326 -5.932,-0.326 -8.884,-0c-1.436,0.16 -2.534,1.389 -2.534,2.833c0,0.663 0.231,1.306 0.654,1.817c1.331,1.596 2.964,2.914 4.805,3.879l-0,2.022c-0,2.647 -2.178,4.825 -4.825,4.825c-2.647,0 -4.825,-2.178 -4.825,-4.825c-0,-0.833 -0.686,-1.519 -1.519,-1.519c-0.833,0 -1.518,0.686 -1.518,1.519c-0.001,0.017 -0.001,0.033 -0.001,0.05c0,4.284 3.526,7.81 7.811,7.81c0.488,0 0.975,-0.046 1.454,-0.137c0.626,3.157 2.559,5.355 4.941,5.355c2.382,-0 4.316,-2.2 4.941,-5.356c0.462,0.088 0.932,0.134 1.403,0.138c4.311,-0.006 7.857,-3.552 7.862,-7.863c-0.001,-0.833 -0.686,-1.516 -1.519,-1.516Zm-16.442,-6.052c2.497,-0.251 5.014,-0.251 7.511,0c-1.061,1.197 -2.335,2.188 -3.756,2.923c-1.421,-0.735 -2.694,-1.726 -3.755,-2.923Zm3.755,17.611c-0.731,0 -1.78,-1.327 -2.051,-3.471c0.793,-0.523 1.484,-1.186 2.039,-1.957c0.557,0.777 1.257,1.442 2.063,1.957c-0.272,2.146 -1.319,3.471 -2.051,3.471Z" style="fill:#c30b0e;fill-rule:nonzero;"></path>
</svg>
