<?xml version="1.0" encoding="UTF-8" standalone="no"?>
<svg xmlns="http://www.w3.org/2000/svg" xmlns:xlink="http://www.w3.org/1999/xlink" xmlns:serif="http://www.serif.com/" width="100%" height="100%" viewBox="0 0 96 93" version="1.1" xml:space="preserve" style="fill-rule:evenodd;clip-rule:evenodd;stroke-linejoin:round;stroke-miterlimit:2;">
  <g id="husky_dog">
    <ellipse cx="33.87" cy="49.41" rx="4.23" ry="3.416" style="fill:#c30b0e;"></ellipse>
    <ellipse cx="58.594" cy="49.607" rx="4.474" ry="3.613" style="fill:#c30b0e;"></ellipse>
    <path d="M38.926,81.993c-3.032,-0.047 -5.834,-1.337 -7.428,-3.42l-5.219,-6.735c-0.877,-1.133 -2.412,-1.829 -4.067,-1.845c-1.018,0 -1.857,-0.677 -1.857,-1.5c0,-0.823 0.839,-1.5 1.857,-1.5c2.953,-0.008 5.708,1.227 7.262,3.255l5.218,6.735c0.91,1.195 2.499,1.949 4.234,2.01c1.019,-0 1.857,0.677 1.857,1.5c0,0.822 -0.838,1.5 -1.857,1.5Zm7.428,-0c-1.018,-0 -1.857,-0.678 -1.857,-1.5l0,-6c0,-0.823 0.839,-1.5 1.857,-1.5c1.019,-0 1.857,0.677 1.857,1.5l0,6c0,0.822 -0.838,1.5 -1.857,1.5Zm7.429,-0c-1.019,-0 -1.857,-0.678 -1.857,-1.5c-0,-0.823 0.838,-1.5 1.857,-1.5c1.751,-0.043 3.364,-0.793 4.289,-1.995l5.219,-6.735c1.539,-2.02 4.268,-3.259 7.205,-3.27c1.019,0 1.857,0.677 1.857,1.5c0,0.823 -0.838,1.5 -1.857,1.5c-1.667,0.006 -3.219,0.703 -4.104,1.845l-5.181,6.735c-1.594,2.083 -4.397,3.373 -7.428,3.42Z" style="fill:#c30b0e;fill-rule:nonzero;"></path>
    <path d="M39.186,81.993l-0.26,-0c-0.97,-0.055 -1.732,-0.715 -1.732,-1.5c0,-0.825 0.841,-1.504 1.862,-1.504c0.043,0 0.087,0.001 0.13,0.004l0.371,-0c0.897,0.125 1.555,0.765 1.542,1.5c-0,-0 -0,0 -0,0c-0,0.823 -0.839,1.5 -1.857,1.5c-0.019,0 -0.037,0 -0.056,-0Zm14.597,-0l-0.26,-0c-1.019,-0 -1.857,-0.678 -1.857,-1.5c-0,-0.823 0.838,-1.5 1.857,-1.5c0.528,-0.089 1.079,0.028 1.485,0.315c0.421,0.297 0.653,0.733 0.632,1.185c-0,0.822 -0.839,1.5 -1.857,1.5Z" style="fill:#aeadb3;fill-rule:nonzero;"></path>
    <path d="M53.783,81.993l-14.857,-0c-1.019,-0 -1.857,-0.678 -1.857,-1.5c-0,-0.823 0.838,-1.5 1.857,-1.5l14.857,-0c1.018,-0 1.857,0.677 1.857,1.5c-0,0.822 -0.839,1.5 -1.857,1.5Z" style="fill:#c30b0e;fill-rule:nonzero;"></path>
    <path d="M10.791,56.494l-0.185,-0c-1.006,-0.086 -1.75,-0.822 -1.653,-1.635l0.78,-6.15c0.418,-3.478 1.607,-6.867 3.51,-10.005c8.902,-14.68 31.163,-20.862 49.361,-13.709c0.637,0.252 1.043,0.777 1.043,1.35c-0,0.824 -0.84,1.503 -1.86,1.503c-0.284,-0 -0.563,-0.053 -0.818,-0.153c-4.543,-1.802 -9.539,-2.739 -14.601,-2.739c-16.907,0 -31.239,10.453 -32.958,24.038l-0.78,6.15c-0.095,0.76 -0.893,1.346 -1.839,1.35Zm35.563,34.498c-0.141,0.016 -0.285,0.016 -0.427,0l-38.998,-7.499c-0.926,-0.171 -1.549,-0.889 -1.43,-1.65l2.693,-21.12c0.094,-0.766 0.903,-1.357 1.857,-1.357c1.023,0 1.866,0.681 1.866,1.507c-0,0.051 -0.003,0.101 -0.009,0.15l-2.545,19.815l36.993,7.154l18.311,-3.51c0.094,-0.011 0.189,-0.017 0.285,-0.017c1.019,-0 1.857,0.677 1.857,1.5c-0,0.649 -0.522,1.228 -1.288,1.427l-18.738,3.6c-0.141,0.016 -0.285,0.016 -0.427,0Zm35.155,-6.765c-0.877,0.019 -1.656,-0.465 -1.857,-1.154c-0.231,-0.798 0.387,-1.609 1.374,-1.8l2.265,-0.435l-3.992,-31.844c-0.822,-6.569 -4.619,-12.666 -10.66,-17.114c-0.52,-0.375 -1.058,-0.75 -1.634,-1.095c-0.45,-0.286 -0.714,-0.723 -0.714,-1.185c0,-0.826 0.842,-1.506 1.865,-1.506c0.418,-0 0.823,0.113 1.152,0.321c0.613,0.405 1.225,0.81 1.857,1.245c6.771,4.931 11.036,11.723 11.959,19.049l4.086,33.134c0.119,0.761 -0.504,1.479 -1.43,1.65l-3.844,0.734l-0.427,0Zm-9.156,1.77c-0.071,0.007 -0.142,0.01 -0.213,0.01c-1.026,0 -1.87,-0.681 -1.87,-1.51c0,-0.763 0.717,-1.412 1.656,-1.499l1.987,-0.375c0.184,-0.048 0.376,-0.073 0.57,-0.073c1.018,0 1.857,0.677 1.857,1.5c-0,0.737 -0.672,1.369 -1.573,1.482l-1.987,0.375l-0.427,0.09Z" style="fill:#c30b0e;fill-rule:nonzero;"></path>
    <path d="M46.354,75.498c-3.157,-0 -9.285,-1.77 -9.285,-5.01c0.019,-1.392 0.793,-2.709 2.117,-3.6c1.301,-0.914 2.974,-1.41 4.698,-1.395l4.94,0c3.561,-0.126 6.627,2.121 6.816,4.995c-0.251,1.731 -1.69,3.207 -3.714,3.81c-1.723,0.732 -3.627,1.142 -5.572,1.2Zm-2.47,-7.005c-0.821,-0.017 -1.622,0.213 -2.247,0.645c-0.525,0.321 -0.84,0.819 -0.854,1.35c0,0.585 3.101,2.01 5.571,2.01c1.349,-0.055 2.668,-0.346 3.863,-0.855c1.337,-0.57 1.69,-1.05 1.709,-1.155c-0.211,-1.218 -1.584,-2.102 -3.102,-1.995l-4.94,0Zm-28.97,-27.629l-0.371,0c-0.829,-0.135 -1.444,-0.712 -1.486,-1.395c-0.093,-1.5 -0.13,-2.999 -0.13,-4.694c-0.071,-6.482 0.777,-12.949 2.526,-19.275c0.246,-0.618 0.963,-1.04 1.767,-1.04c1.019,0 1.857,0.678 1.857,1.5c0,0.077 -0.007,0.154 -0.022,0.23c-1.616,5.911 -2.426,11.947 -2.414,18c5.207,-5.724 12.777,-9.762 21.338,-11.385c-1.987,-12.239 -6.667,-18.809 -10.195,-18.809c-2.173,-0 -4.662,2.475 -6.649,6.63c-0.307,0.522 -0.961,0.856 -1.677,0.856c-1.019,-0 -1.857,-0.677 -1.857,-1.5c-0,-0.148 0.027,-0.295 0.08,-0.436c3.38,-7.05 7.354,-8.55 10.103,-8.55c8.004,0 12.535,11.775 14.095,22.799c0.103,0.774 -0.557,1.492 -1.504,1.635c-10.311,1.547 -19.125,6.956 -23.734,14.564c-0.309,0.541 -0.99,0.884 -1.727,0.87Zm62.88,0c-0.737,0.014 -1.417,-0.329 -1.727,-0.87c-1.81,-3.064 -4.332,-5.818 -7.428,-8.114c-0.52,-0.375 -1.058,-0.75 -1.634,-1.095c-0.45,-0.286 -0.714,-0.723 -0.714,-1.185c0,-0.826 0.842,-1.506 1.865,-1.506c0.418,-0 0.823,0.113 1.152,0.321c0.613,0.405 1.225,0.81 1.857,1.245c1.864,1.356 3.551,2.864 5.032,4.5c-0.26,-17.31 -6.072,-30.164 -11.272,-30.164c-3.528,-0 -8.208,6.57 -10.195,18.779c2.721,0.495 5.363,1.239 7.874,2.22c0.637,0.252 1.043,0.777 1.043,1.35c-0,0.824 -0.84,1.503 -1.86,1.503c-0.284,-0 -0.563,-0.053 -0.818,-0.153c-2.733,-1.083 -5.639,-1.856 -8.635,-2.295c-0.948,-0.143 -1.607,-0.861 -1.504,-1.635c1.56,-10.994 6.091,-22.769 14.095,-22.769c9.657,0 14.857,17.384 14.857,33.749c-0,1.725 -0,3.254 -0.13,4.694c-0.043,0.683 -0.657,1.26 -1.486,1.395l-0.372,0.03Z" style="fill:#c30b0e;fill-rule:nonzero;"></path>
  </g>
</svg>
