<?xml version="1.0" encoding="UTF-8" standalone="no"?>
<svg xmlns="http://www.w3.org/2000/svg" xmlns:xlink="http://www.w3.org/1999/xlink" xmlns:serif="http://www.serif.com/" width="100%" height="100%" viewBox="0 0 96 93" version="1.1" xml:space="preserve" style="fill-rule:evenodd;clip-rule:evenodd;stroke-linejoin:round;stroke-miterlimit:2;">
  <g id="bird">
    <circle cx="66.957" cy="33.669" r="2.51" style="fill:#c30b0e;"></circle>
    <circle cx="28.476" cy="33.669" r="2.51" style="fill:#c30b0e;"></circle>
    <path d="M63.125,9.61c-0.262,0.005 -0.522,-0.058 -0.752,-0.184l-0.636,-0.284c-0.612,-0.266 -1.009,-0.872 -1.009,-1.539c-0,-0.921 0.757,-1.679 1.678,-1.679c0.23,0 0.458,0.048 0.669,0.139l0.803,0.385c0.815,0.415 1.147,1.425 0.737,2.242c-0.284,0.562 -0.86,0.918 -1.49,0.92Zm4.819,75.088c-0.836,0.009 -1.671,-0.063 -2.493,-0.218c-0.8,-0.152 -1.385,-0.858 -1.385,-1.673c-0,-0.934 0.769,-1.703 1.703,-1.703c0.107,0 0.213,0.01 0.318,0.03c0.607,0.107 1.223,0.157 1.84,0.151c1.76,-0.071 3.179,-1.519 3.212,-3.28l0,-10.038c0,-0.918 0.756,-1.673 1.674,-1.673c0.917,-0 1.673,0.755 1.673,1.673c0,0.947 0.164,1.886 0.485,2.777c1.174,3.337 4.343,5.584 7.88,5.588l3.781,0c0.012,0.001 0.025,0.001 0.037,0.001c0.67,-0 1.221,-0.552 1.221,-1.222c0,-0.154 -0.029,-0.308 -0.087,-0.452l-2.626,-8.516c-2.646,-8.625 -3.993,-17.596 -3.999,-26.618c-0,-1.088 -0,-2.242 -0.184,-3.43c-0.771,-7.647 -4.166,-14.796 -9.604,-20.227c-1.127,-1.118 -2.329,-2.157 -3.597,-3.112c-0.515,-0.299 -0.833,-0.852 -0.833,-1.447c0,-0.918 0.756,-1.673 1.674,-1.673c0.42,-0 0.825,0.158 1.134,0.443c1.406,1.011 2.732,2.13 3.965,3.346c2.512,2.506 4.648,5.363 6.341,8.482c0.973,1.826 1.796,3.729 2.459,5.689c0.902,2.622 1.497,5.339 1.774,8.097c0.139,1.273 0.211,2.552 0.217,3.832c-0,8.711 1.303,17.373 3.865,25.698l2.627,8.533c0.128,0.434 0.196,0.885 0.2,1.338c0,2.515 -2.069,4.584 -4.584,4.584l-3.781,0c-3.146,0.001 -6.163,-1.266 -8.365,-3.513l-0,1.84c0.001,3.615 -2.928,6.611 -6.542,6.693Zm-56.148,-31.789l-0.235,0c-0.908,-0.128 -1.55,-0.982 -1.422,-1.89c0.513,-3.81 0.77,-7.65 0.77,-11.494c0.002,-1.258 0.069,-2.514 0.201,-3.765c0.356,-3.635 1.264,-7.195 2.693,-10.557c1.847,-4.375 4.523,-8.352 7.881,-11.711c1.673,-1.663 3.499,-3.164 5.454,-4.484c0.987,-0.669 1.991,-1.272 3.028,-1.857c3.178,-1.724 6.595,-2.965 10.139,-3.681c4.89,-1.005 9.933,-1.005 14.823,0l1.389,0.301c0.783,0.172 1.345,0.872 1.345,1.673c-0,0.94 -0.773,1.713 -1.713,1.713c-0.124,0 -0.247,-0.013 -0.368,-0.04l-1.372,-0.368c-4.417,-0.894 -8.968,-0.894 -13.385,0c-3.217,0.651 -6.318,1.778 -9.202,3.346c-0.937,0.519 -1.84,1.071 -2.76,1.674c-1.808,1.186 -3.49,2.554 -5.019,4.082c-3.068,3.041 -5.507,6.657 -7.178,10.641c-1.309,3.082 -2.128,6.351 -2.426,9.687c-0.184,1.104 -0.184,2.258 -0.184,3.346c0.006,3.995 -0.262,7.987 -0.803,11.945c-0.116,0.822 -0.827,1.439 -1.656,1.439Zm35.921,36.808l-0.937,-0c-4.891,-0.597 -8.703,-4.621 -9.035,-9.537c-0.201,0.235 -0.418,0.452 -0.652,0.686c-2.521,2.474 -5.922,3.852 -9.453,3.832l-0.151,-0c-3.614,-0.082 -6.543,-3.078 -6.542,-6.693l0,-1.84c-2.202,2.247 -5.219,3.514 -8.365,3.513l-3.781,0c-2.515,0 -4.584,-2.069 -4.584,-4.584c0.003,-0.448 0.071,-0.893 0.2,-1.322l2.627,-8.549c0.636,-2.058 1.205,-4.166 1.673,-6.24c0.126,-0.812 0.832,-1.417 1.654,-1.417c0.917,0 1.673,0.755 1.673,1.673c-0,0.174 -0.028,0.347 -0.081,0.513c-0.502,2.142 -1.087,4.317 -1.673,6.441l-2.727,8.466c-0.021,0.122 -0.021,0.247 -0,0.368c-0,0.679 0.559,1.238 1.238,1.238l3.781,0c4.589,0 8.365,-3.776 8.365,-8.365c0,-0.918 0.756,-1.673 1.673,-1.673c0.918,-0 1.674,0.755 1.674,1.673l-0,10.038c-0.002,1.793 1.437,3.284 3.229,3.347c2.679,0.016 5.259,-1.024 7.177,-2.895c1.891,-1.87 2.962,-4.417 2.978,-7.077c0,-0.918 0.755,-1.673 1.673,-1.673c0.918,-0 1.673,0.755 1.673,1.673l0,7.997c-0.074,3.53 2.542,6.587 6.04,7.061c0.217,0.021 0.435,0.032 0.653,0.032c3.671,-0 6.692,-3.021 6.692,-6.693c-0,-0.01 -0,-0.021 -0,-0.032l-0,-8.365c-0,-0.918 0.755,-1.673 1.673,-1.673c0.918,-0 1.673,0.755 1.673,1.673c-0.016,2.779 1.138,5.441 3.179,7.328c0.335,0.317 0.526,0.76 0.526,1.221c-0,0.922 -0.759,1.681 -1.681,1.681c-0.429,0 -0.842,-0.164 -1.154,-0.459c-0.301,-0.301 -0.602,-0.603 -0.887,-0.92c-0.257,5.315 -4.699,9.55 -10.021,9.553Zm-0,-25.096c-0.445,0.002 -0.873,-0.172 -1.188,-0.485l-13.034,-13.034c-0.633,-0.628 -0.989,-1.484 -0.989,-2.375c-0,-0.892 0.356,-1.748 0.989,-2.376l2.393,-2.393c0.329,-0.335 0.676,-0.653 1.037,-0.953c0.301,-0.25 0.68,-0.387 1.071,-0.387c0.919,-0 1.675,0.756 1.675,1.675c0,0.498 -0.222,0.97 -0.604,1.288l-0.803,0.753l-2.393,2.393l11.712,11.711l11.845,-11.795l-2.309,-2.309c-3.34,-3.313 -8.191,-4.631 -12.749,-3.463c-0.136,0.035 -0.277,0.053 -0.418,0.053c-0.919,-0 -1.676,-0.757 -1.676,-1.676c0,-0.762 0.52,-1.433 1.258,-1.623c5.729,-1.489 11.838,0.169 16.028,4.35l2.292,2.242c0.633,0.628 0.99,1.484 0.99,2.376c-0,0.892 -0.357,1.748 -0.99,2.376l-13.033,13.033c-0.273,0.343 -0.67,0.565 -1.104,0.619Z" style="fill:#c30b0e;fill-rule:nonzero;"></path>
  </g>
</svg>
